<mxfile host="65bd71144e">
    <diagram id="nVbxlllgIbOqqdy7c9RY" name="Sign In">
        <mxGraphModel dx="1974" dy="1717" grid="1" gridSize="10" guides="1" tooltips="1" connect="1" arrows="1" fold="1" page="1" pageScale="1" pageWidth="850" pageHeight="1100" math="0" shadow="0">
            <root>
                <mxCell id="jX85Kw0TbA-bxUbhfbJ2-0"/>
                <mxCell id="jX85Kw0TbA-bxUbhfbJ2-1" parent="jX85Kw0TbA-bxUbhfbJ2-0"/>
                <mxCell id="jX85Kw0TbA-bxUbhfbJ2-2" value="" style="strokeWidth=1;shadow=0;dashed=0;align=center;html=1;shape=mxgraph.mockup.containers.browserWindow;rSize=0;strokeColor=#666666;strokeColor2=#008cff;strokeColor3=#c4c4c4;mainText=,;recursiveResize=0;container=0;fillColor=#000000;" parent="jX85Kw0TbA-bxUbhfbJ2-1" vertex="1">
                    <mxGeometry x="-400" y="-370" width="1200" height="800" as="geometry"/>
                </mxCell>
                <mxCell id="jX85Kw0TbA-bxUbhfbJ2-3" value="Page 1" style="strokeWidth=1;shadow=0;dashed=0;align=center;html=1;shape=mxgraph.mockup.containers.anchor;fontSize=17;fontColor=#666666;align=left;" parent="jX85Kw0TbA-bxUbhfbJ2-1" vertex="1">
                    <mxGeometry x="-340" y="-358" width="110" height="26" as="geometry"/>
                </mxCell>
                <mxCell id="jX85Kw0TbA-bxUbhfbJ2-4" value="https://www.draw.io" style="strokeWidth=1;shadow=0;dashed=0;align=center;html=1;shape=mxgraph.mockup.containers.anchor;rSize=0;fontSize=17;fontColor=#666666;align=left;" parent="jX85Kw0TbA-bxUbhfbJ2-1" vertex="1">
                    <mxGeometry x="-270" y="-310" width="250" height="26" as="geometry"/>
                </mxCell>
                <mxCell id="jX85Kw0TbA-bxUbhfbJ2-5" value="" style="rounded=0;whiteSpace=wrap;html=1;fillColor=#6b6570;" parent="jX85Kw0TbA-bxUbhfbJ2-1" vertex="1">
                    <mxGeometry x="-400" y="-260" width="1200" height="60" as="geometry"/>
                </mxCell>
                <mxCell id="jX85Kw0TbA-bxUbhfbJ2-7" value="Logo" style="rounded=1;whiteSpace=wrap;html=1;fillColor=#3399FF;" parent="jX85Kw0TbA-bxUbhfbJ2-1" vertex="1">
                    <mxGeometry x="-380" y="-250" width="350" height="40" as="geometry"/>
                </mxCell>
                <mxCell id="uriJi8vmd3a0PL1YAelZ-0" value="" style="aspect=fixed;perimeter=ellipsePerimeter;html=1;align=center;shadow=0;dashed=0;spacingTop=3;image;image=img/lib/active_directory/secure.svg;" parent="jX85Kw0TbA-bxUbhfbJ2-1" vertex="1">
                    <mxGeometry x="-280" y="-140" width="32" height="50" as="geometry"/>
                </mxCell>
                <mxCell id="uriJi8vmd3a0PL1YAelZ-6" value="&lt;font style=&quot;font-size: 24px&quot;&gt;EMAIL ADDRESS&lt;/font&gt;" style="text;html=1;strokeColor=none;fillColor=none;align=left;verticalAlign=middle;whiteSpace=wrap;rounded=0;" parent="jX85Kw0TbA-bxUbhfbJ2-1" vertex="1">
                    <mxGeometry x="-170" width="220" height="70" as="geometry"/>
                </mxCell>
                <mxCell id="uriJi8vmd3a0PL1YAelZ-7" value="&lt;span style=&quot;font-size: 24px&quot;&gt;PASSWORD&lt;/span&gt;" style="text;html=1;strokeColor=none;fillColor=none;align=left;verticalAlign=middle;whiteSpace=wrap;rounded=0;" parent="jX85Kw0TbA-bxUbhfbJ2-1" vertex="1">
                    <mxGeometry x="-170" y="130" width="220" height="70" as="geometry"/>
                </mxCell>
                <mxCell id="uriJi8vmd3a0PL1YAelZ-8" value="&lt;font style=&quot;font-size: 36px&quot;&gt;&lt;b&gt;Sign In&lt;/b&gt;&lt;/font&gt;" style="text;html=1;strokeColor=none;fillColor=none;align=left;verticalAlign=middle;whiteSpace=wrap;rounded=0;" parent="jX85Kw0TbA-bxUbhfbJ2-1" vertex="1">
                    <mxGeometry x="-210" y="-150" width="220" height="70" as="geometry"/>
                </mxCell>
                <mxCell id="uriJi8vmd3a0PL1YAelZ-9" value="" style="strokeWidth=1;shadow=0;dashed=0;align=center;html=1;shape=mxgraph.mockup.text.textBox;fontColor=#666666;align=left;fontSize=17;spacingLeft=4;spacingTop=-3;strokeColor=#666666;mainText=" parent="jX85Kw0TbA-bxUbhfbJ2-1" vertex="1">
                    <mxGeometry x="-170" y="60" width="300" height="30" as="geometry"/>
                </mxCell>
                <mxCell id="uriJi8vmd3a0PL1YAelZ-10" value="" style="strokeWidth=1;shadow=0;dashed=0;align=center;html=1;shape=mxgraph.mockup.text.textBox;fontColor=#666666;align=left;fontSize=17;spacingLeft=4;spacingTop=-3;strokeColor=#666666;mainText=" parent="jX85Kw0TbA-bxUbhfbJ2-1" vertex="1">
                    <mxGeometry x="-170" y="190" width="300" height="30" as="geometry"/>
                </mxCell>
                <mxCell id="uriJi8vmd3a0PL1YAelZ-11" value="&lt;font style=&quot;font-size: 24px&quot;&gt;Sign In&lt;/font&gt;" style="rounded=1;html=1;shadow=0;dashed=0;whiteSpace=wrap;fontSize=10;fillColor=#E6E6E6;align=center;strokeColor=#E6E6E6;fontColor=#333333;" parent="jX85Kw0TbA-bxUbhfbJ2-1" vertex="1">
                    <mxGeometry x="-170" y="260" width="220" height="50" as="geometry"/>
                </mxCell>
                <mxCell id="uriJi8vmd3a0PL1YAelZ-13" value="" style="line;strokeWidth=2;html=1;fontSize=36;" parent="jX85Kw0TbA-bxUbhfbJ2-1" vertex="1">
                    <mxGeometry x="-285" y="-80" width="955" height="10" as="geometry"/>
                </mxCell>
            </root>
        </mxGraphModel>
    </diagram>
</mxfile>